<?xml version="1.0" encoding="UTF-8"?>
<svg xmlns="http://www.w3.org/2000/svg" xmlns:xlink="http://www.w3.org/1999/xlink" viewBox="0 0 1280 649.83">
  <defs>
    <style>
      .cls-1 {
        fill: #66317c;
      }

      .cls-1, .cls-2, .cls-3, .cls-4, .cls-5, .cls-6, .cls-7, .cls-8, .cls-9, .cls-10, .cls-11, .cls-12 {
        stroke-width: 0px;
      }

      .cls-13 {
        fill: #fff;
        font-family: Megrim, Megrim;
        font-size: 103px;
        stroke: #fff;
        stroke-width: .5px;
      }

      .cls-13, .cls-14, .cls-15 {
        stroke-miterlimit: 10;
      }

      .cls-2 {
        fill: #7a2d7a;
      }

      .cls-3 {
        fill: url(#linear-gradient);
      }

      .cls-4 {
        fill: url(#linear-gradient-6);
      }

      .cls-5 {
        fill: url(#linear-gradient-5);
      }

      .cls-16 {
        opacity: .3;
      }

      .cls-6 {
        fill: url(#linear-gradient-2);
      }

      .cls-7 {
        fill: url(#linear-gradient-7);
      }

      .cls-8 {
        fill: url(#linear-gradient-3);
      }

      .cls-17 {
        opacity: .1;
      }

      .cls-9 {
        fill: url(#linear-gradient-9);
      }

      .cls-10 {
        fill: url(#linear-gradient-8);
      }

      .cls-18 {
        mask: url(#mask-1);
      }

      .cls-19 {
        mask: url(#mask);
      }

      .cls-11 {
        fill: url(#linear-gradient-10);
      }

      .cls-14 {
        stroke: url(#linear-gradient-11);
      }

      .cls-14, .cls-15 {
        fill: none;
        stroke-width: 6px;
      }

      .cls-12 {
        fill: url(#linear-gradient-4);
      }

      .cls-15 {
        stroke: url(#linear-gradient-12);
      }
    </style>
    <filter id="luminosity-noclip" x="120.386" y="-9187" width="669.957" height="32766" color-interpolation-filters="sRGB" filterUnits="userSpaceOnUse">
      <feFlood flood-color="#fff" result="bg"/>
      <feBlend in="SourceGraphic" in2="bg"/>
    </filter>
    <mask id="mask" x="120.386" y="-9187" width="669.957" height="32766" maskUnits="userSpaceOnUse"/>
    <filter id="luminosity-noclip-2" x="120.386" y="-9187" width="669.957" height="32766" color-interpolation-filters="sRGB" filterUnits="userSpaceOnUse">
      <feFlood flood-color="#fff" result="bg"/>
      <feBlend in="SourceGraphic" in2="bg"/>
    </filter>
    <mask id="mask-1" x="120.386" y="-9187" width="669.957" height="32766" maskUnits="userSpaceOnUse"/>
    <linearGradient id="linear-gradient" x1="170.429" y1="438.295" x2="432.412" y2="438.295" gradientUnits="userSpaceOnUse">
      <stop offset="0" stop-color="#66107c"/>
      <stop offset=".619" stop-color="#6016b9"/>
      <stop offset="1" stop-color="#5d1ae1"/>
    </linearGradient>
    <linearGradient id="linear-gradient-2" x1="120.386" y1="199.03" x2="493.918" y2="199.03" xlink:href="#linear-gradient"/>
    <linearGradient id="linear-gradient-3" x1="434.922" y1="401.745" x2="790.344" y2="401.745" xlink:href="#linear-gradient"/>
    <linearGradient id="linear-gradient-4" x1="476.106" y1="569.941" x2="514.404" y2="569.941" gradientUnits="userSpaceOnUse">
      <stop offset="0" stop-color="#66317c"/>
      <stop offset="1" stop-color="#5d32e1"/>
    </linearGradient>
    <linearGradient id="linear-gradient-5" x1="269.042" y1="510.768" x2="307.34" y2="510.768" xlink:href="#linear-gradient-4"/>
    <linearGradient id="linear-gradient-6" x1="249.893" y1="318.171" x2="288.191" y2="318.171" xlink:href="#linear-gradient-4"/>
    <linearGradient id="linear-gradient-7" x1="455.62" y1="199.03" x2="493.918" y2="199.03" xlink:href="#linear-gradient-4"/>
    <linearGradient id="linear-gradient-8" x1="249.893" y1="79.889" x2="288.191" y2="79.889" xlink:href="#linear-gradient-4"/>
    <linearGradient id="linear-gradient-9" x1="581.553" y1="233.549" x2="619.85" y2="233.549" xlink:href="#linear-gradient-4"/>
    <linearGradient id="linear-gradient-10" x1="752.046" y1="325.049" x2="790.344" y2="325.049" xlink:href="#linear-gradient-4"/>
    <linearGradient id="linear-gradient-11" x1="224.453" y1="154.055" x2="276.419" y2="154.055" xlink:href="#linear-gradient"/>
    <linearGradient id="linear-gradient-12" x1="224.453" y1="64.062" x2="276.419" y2="64.062" gradientTransform="translate(0 308.111) scale(1 -1)" xlink:href="#linear-gradient"/>
  </defs>
  <g id="shape">
    <g id="Layer_7" data-name="Layer 7">
      <g class="cls-17">
        <g>
          <path class="cls-1" d="M288.191,533.918c-12.765,0-23.149-10.385-23.149-23.149,0-4.564,1.36-9.014,3.873-12.793l-32.047-55.506h-70.438v-21h70.438l45.494-78.798h103.113l51.557,89.298-51.557,89.299h-76.674c-3.912,7.668-11.87,12.649-20.61,12.649ZM373.35,500.268l39.433-68.299-39.433-68.298h-78.863l-39.432,68.298,32.143,55.675c.335-.017.666-.024.993-.024,8.74,0,16.698,4.98,20.609,12.648h64.55Z"/>
          <path class="cls-1" d="M269.041,341.32c-12.764,0-23.148-10.385-23.148-23.148,0-4.329,1.173-8.458,3.414-12.089l-55.745-96.553h-77.176v-21h77.176l55.745-96.553c-2.241-3.631-3.414-7.76-3.414-12.089,0-12.764,10.385-23.148,23.148-23.148,8.74,0,16.698,4.98,20.609,12.648h122.395l61.504,106.527c.409-.023.815-.035,1.22-.035,12.765,0,23.149,10.385,23.149,23.149s-10.385,23.149-23.149,23.149c-.404,0-.811-.012-1.22-.035l-61.726,106.912-122.177-.377c-3.912,7.663-11.868,12.641-20.605,12.641ZM399.92,307.672l55.445-96.032c-2.431-3.737-3.745-8.122-3.745-12.609s1.314-8.872,3.745-12.609l-55.445-96.032h-110.269c-3.912,7.668-11.87,12.649-20.61,12.649-.608,0-1.219-.024-1.829-.073l-55.463,96.065,55.463,96.065c.61-.049,1.221-.073,1.829-.073,8.74,0,16.698,4.981,20.61,12.649h110.269Z"/>
          <path class="cls-1" d="M495.254,593.09c-12.764,0-23.148-10.385-23.148-23.148,0-8.74,4.98-16.698,12.648-20.609v-129.969l-54.452-94.313,58.89-102.001h90.899c3.912-7.668,11.87-12.648,20.61-12.648,12.764,0,23.148,10.385,23.148,23.148,0,4.42-1.274,8.747-3.631,12.445l39.581,68.556h90.784c3.912-7.668,11.87-12.649,20.61-12.649,12.764,0,23.148,10.385,23.148,23.149s-10.385,23.148-23.148,23.148c-8.74,0-16.698-4.98-20.609-12.648h-90.785l-52.971,91.749-101.075-.239v122.271c7.668,3.912,12.649,11.87,12.649,20.61,0,12.764-10.385,23.148-23.149,23.148ZM594.847,406.05l46.766-81-39.489-68.398c-.479.031-.952.047-1.422.047-8.74,0-16.698-4.981-20.61-12.649h-78.774l-46.766,81.001,46.766,81h93.53Z"/>
        </g>
      </g>
    </g>
    <g class="cls-19">
      <g class="cls-18">
        <g>
          <path class="cls-3" d="M284.672,346.672l-45.494,78.798h-68.749v13h68.749l34.526,59.801c-2.897,3.355-4.661,7.717-4.661,12.498,0,10.576,8.573,19.149,19.149,19.149,8.29,0,15.329-5.278,17.993-12.649h76.982l49.247-85.299-49.247-85.298h-98.494ZM375.66,504.269h-69.476c-2.664-7.371-9.703-12.649-17.993-12.649-1.077,0-2.125.111-3.154.281l-34.601-59.931,41.742-72.298h83.482l41.742,72.298-41.742,72.299Z"/>
          <path class="cls-6" d="M402.23,311.671h-115.195c-2.664-7.371-9.703-12.649-17.993-12.649-1.352,0-2.671.144-3.944.411l-57.968-100.403,57.968-100.403c1.273.267,2.591.411,3.944.411,8.29,0,15.329-5.278,17.993-12.649h115.195l57.909,100.3c-2.815,3.334-4.519,7.636-4.519,12.341s1.703,9.007,4.518,12.341l-57.908,100.3ZM409.518,325.049l61.883-107.185c1.096.195,2.217.314,3.369.314,10.576,0,19.149-8.573,19.149-19.149s-8.573-19.149-19.149-19.149c-1.151,0-2.273.119-3.369.314l-61.664-106.807h-122.701c-2.664-7.371-9.703-12.649-17.993-12.649-10.576,0-19.149,8.573-19.149,19.149,0,4.494,1.559,8.617,4.151,11.884l-58.172,100.757h-75.485v13h75.485l58.172,100.757c-2.592,3.267-4.151,7.39-4.151,11.884,0,10.576,8.573,19.149,19.149,19.149,8.29,0,15.329-5.278,17.993-12.649l122.483.378Z"/>
          <path class="cls-8" d="M499.008,410.05l-49.075-85,49.075-85h83.701c2.664,7.371,9.703,12.649,17.993,12.649,1.218,0,2.405-.126,3.56-.343l41.971,72.695-49.075,85M657.49,331.549h95.711c2.664,7.371,9.703,12.649,17.993,12.649,10.576,0,19.149-8.573,19.149-19.149s-8.573-19.149-19.149-19.149c-8.29,0-15.329,5.278-17.993,12.649h-95.711l-42.031-72.8c2.742-3.313,4.391-7.564,4.391-12.201,0-10.576-8.573-19.149-19.149-19.149-8.29,0-15.329,5.278-17.993,12.649h-91.207l-56.58,98,53.833,93.242v133.657c-7.371,2.664-12.649,9.703-12.649,17.993,0,10.576,8.573,19.149,19.149,19.149s19.149-8.573,19.149-19.149c0-8.29-5.278-15.329-12.649-17.993v-128.898l102.768.243,52.968-91.743Z"/>
        </g>
      </g>
    </g>
    <g class="cls-16">
      <circle class="cls-12" cx="495.255" cy="569.941" r="19.149"/>
      <circle class="cls-5" cx="288.191" cy="510.768" r="19.149"/>
      <circle class="cls-4" cx="269.042" cy="318.171" r="19.149"/>
      <circle class="cls-7" cx="474.769" cy="199.03" r="19.149"/>
      <circle class="cls-10" cx="269.042" cy="79.889" r="19.149"/>
      <circle class="cls-9" cx="600.701" cy="233.549" r="19.149"/>
      <circle class="cls-11" cx="771.195" cy="325.049" r="19.149"/>
    </g>
    <g class="cls-16">
      <g>
        <path class="cls-2" d="M288.191,525.918c-8.353,0-15.149-6.796-15.149-15.149,0-3.619,1.31-7.129,3.688-9.884l.437-4.614-34.526-59.801-3.464-2h-64.749v-5h64.749l3.464-2,44.34-76.798h93.875l46.938,81.298-46.938,81.299h-74.672l-3.762,2.641c-2.164,5.986-7.883,10.009-14.231,10.009ZM288.191,495.62c6.349,0,12.068,4.021,14.231,10.008l3.762,2.641h69.476l3.464-2,41.742-72.299v-4l-41.742-72.298-3.464-2h-83.482l-3.464,2-41.742,72.298v4l34.602,59.932,4.12,1.946c.919-.153,1.737-.228,2.498-.228Z"/>
        <path class="cls-2" d="M269.042,333.32c-8.353,0-15.149-6.796-15.149-15.148,0-3.44,1.136-6.69,3.284-9.398l.331-4.486-58.172-100.757-3.464-2h-71.485v-5h71.485l3.464-2,58.172-100.757-.331-4.486c-2.148-2.708-3.284-5.958-3.284-9.398,0-8.353,6.796-15.148,15.149-15.148,6.348,0,12.067,4.022,14.231,10.008l3.762,2.641h120.391l60.51,104.807,4.163,1.938c.959-.17,1.833-.253,2.67-.253,8.353,0,15.149,6.796,15.149,15.149s-6.796,15.149-15.149,15.149c-.837,0-1.71-.083-2.67-.253l-4.163,1.938-60.724,105.178-120.166-.371-3.774,2.641c-2.164,5.986-7.882,10.008-14.231,10.008ZM269.042,303.022c6.348,0,12.067,4.022,14.231,10.009l3.762,2.641h115.195l3.464-2,57.908-100.301-.408-4.58c-2.305-2.73-3.575-6.197-3.575-9.761s1.27-7.03,3.575-9.761l.408-4.58-57.909-100.301-3.464-2h-115.195l-3.762,2.641c-2.164,5.986-7.883,10.009-14.231,10.009-1.04,0-2.09-.109-3.124-.326l-4.284,1.915-57.968,100.403v4l57.968,100.403,4.284,1.915c1.034-.217,2.084-.326,3.124-.326Z"/>
        <path class="cls-2" d="M495.254,585.09c-8.353,0-15.149-6.796-15.149-15.148,0-6.349,4.022-12.067,10.009-14.231l2.64-3.762v-133.657l-.536-2-52.679-91.241,54.271-94.001h88.897l3.762-2.641c2.164-5.985,7.883-10.008,14.232-10.008,8.353,0,15.149,6.796,15.149,15.148,0,3.518-1.233,6.945-3.473,9.651l-.382,4.55,42.031,72.8,3.464,2h95.711l3.762-2.641c2.164-5.986,7.883-10.009,14.231-10.009,8.354,0,15.149,6.796,15.149,15.149s-6.796,15.148-15.149,15.148c-6.348,0-12.066-4.021-14.23-10.008l-3.762-2.641h-95.712l-3.464,2-51.81,89.737-100.453-.237-4.009,4v128.898l2.641,3.762c5.986,2.164,10.008,7.883,10.008,14.231,0,8.353-6.796,15.148-15.149,15.148ZM495.543,238.049l-49.075,85.001v4l49.075,85,3.464,2h98.15l3.464-2,49.075-85v-4l-41.971-72.695-4.205-1.931c-.966.182-1.914.274-2.819.274-6.349,0-12.067-4.022-14.231-10.009l-3.762-2.641h-83.701l-3.464,2Z"/>
      </g>
    </g>
    <g>
      <line class="cls-14" x1="273.821" y1="113.552" x2="227.051" y2="194.559"/>
      <line class="cls-15" x1="273.821" y1="284.552" x2="227.051" y2="203.545"/>
    </g>
  </g>
  <g id="text">
    <text class="cls-13" transform="translate(661.514 460.204)"><tspan x="0" y="0">ÁCIDOBASE</tspan></text>
  </g>
</svg>