<?xml version="1.0" encoding="UTF-8"?>
<svg id="shape" xmlns="http://www.w3.org/2000/svg" xmlns:xlink="http://www.w3.org/1999/xlink" viewBox="0 0 1280 649.83">
  <defs>
    <style>
      .cls-1 {
        fill: #8c8c8c;
      }

      .cls-1, .cls-2 {
        stroke-width: 0px;
      }

      .cls-2 {
        fill: #fff;
      }

      .cls-3 {
        opacity: .12;
      }

      .cls-4 {
        fill: none;
        stroke: #fff;
        stroke-miterlimit: 10;
        stroke-width: 6px;
      }

      .cls-5 {
        mask: url(#mask);
      }
    </style>
    <filter id="luminosity-noclip" x="305.022" y="-7847.34" width="669.957" height="32766" color-interpolation-filters="sRGB" filterUnits="userSpaceOnUse">
      <feFlood flood-color="#fff" result="bg"/>
      <feBlend in="SourceGraphic" in2="bg"/>
    </filter>
    <mask id="mask" x="305.022" y="-7847.34" width="669.957" height="32766" maskUnits="userSpaceOnUse"/>
  </defs>
  <g>
    <g class="cls-3">
      <path class="cls-1" d="M472.826,533.918c-12.765,0-23.149-10.385-23.149-23.149,0-4.564,1.36-9.014,3.873-12.793l-32.047-55.506h-70.438v-21h70.438l45.494-78.798h103.113l51.557,89.298-51.557,89.299h-76.674c-3.912,7.668-11.87,12.649-20.61,12.649ZM557.985,500.268l39.433-68.299-39.433-68.298h-78.863l-39.432,68.298,32.143,55.675c.335-.017.666-.024.993-.024,8.74,0,16.698,4.98,20.609,12.648h64.55Z"/>
      <path class="cls-1" d="M453.677,341.32c-12.764,0-23.148-10.385-23.148-23.148,0-4.329,1.173-8.458,3.414-12.089l-55.745-96.553h-77.176v-21h77.176l55.745-96.553c-2.241-3.631-3.414-7.76-3.414-12.089,0-12.764,10.385-23.148,23.148-23.148,8.74,0,16.698,4.98,20.609,12.648h122.395l61.504,106.527c.409-.023.815-.035,1.22-.035,12.765,0,23.149,10.385,23.149,23.149s-10.385,23.149-23.149,23.149c-.404,0-.811-.012-1.22-.035l-61.726,106.912-122.177-.377c-3.912,7.663-11.868,12.641-20.605,12.641ZM584.556,307.672l55.445-96.032c-2.431-3.737-3.745-8.122-3.745-12.609s1.314-8.872,3.745-12.609l-55.445-96.032h-110.269c-3.912,7.668-11.87,12.649-20.61,12.649-.608,0-1.219-.024-1.829-.073l-55.463,96.065,55.463,96.065c.61-.049,1.221-.073,1.829-.073,8.74,0,16.698,4.981,20.61,12.649h110.269Z"/>
      <path class="cls-1" d="M679.89,593.09c-12.764,0-23.148-10.385-23.148-23.148,0-8.74,4.98-16.698,12.648-20.609v-129.969l-54.452-94.313,58.89-102.001h90.899c3.912-7.668,11.87-12.648,20.61-12.648,12.764,0,23.148,10.385,23.148,23.148,0,4.42-1.274,8.747-3.631,12.445l39.581,68.556h90.784c3.912-7.668,11.87-12.649,20.61-12.649,12.764,0,23.148,10.385,23.148,23.149s-10.385,23.148-23.148,23.148c-8.74,0-16.698-4.98-20.609-12.648h-90.785l-52.971,91.749-101.075-.239v122.271c7.668,3.912,12.649,11.87,12.649,20.61,0,12.764-10.385,23.148-23.149,23.148ZM779.482,406.05l46.766-81-39.489-68.398c-.479.031-.952.047-1.422.047-8.74,0-16.698-4.981-20.61-12.649h-78.774l-46.766,81.001,46.766,81h93.53Z"/>
    </g>
    <g class="cls-5">
      <g>
        <path class="cls-2" d="M469.307,346.672l-45.494,78.798h-68.749v13h68.749l34.526,59.801c-2.897,3.355-4.661,7.717-4.661,12.498,0,10.576,8.573,19.149,19.149,19.149,8.29,0,15.329-5.278,17.993-12.649h76.982l49.247-85.299-49.247-85.298h-98.494ZM560.295,504.269h-69.476c-2.664-7.371-9.703-12.649-17.993-12.649-1.077,0-2.125.111-3.154.281l-34.601-59.931,41.742-72.298h83.482l41.742,72.298-41.742,72.299Z"/>
        <path class="cls-2" d="M586.866,311.672h-115.195c-2.664-7.371-9.703-12.649-17.993-12.649-1.352,0-2.671.144-3.944.411l-57.968-100.403,57.968-100.403c1.273.267,2.591.411,3.944.411,8.29,0,15.329-5.278,17.993-12.649h115.195l57.909,100.3c-2.815,3.334-4.519,7.636-4.519,12.341s1.703,9.007,4.518,12.341l-57.908,100.3ZM594.153,325.049l61.883-107.185c1.096.195,2.217.314,3.369.314,10.576,0,19.149-8.573,19.149-19.149s-8.573-19.149-19.149-19.149c-1.151,0-2.273.119-3.369.314l-61.664-106.807h-122.701c-2.664-7.371-9.703-12.649-17.993-12.649-10.576,0-19.149,8.573-19.149,19.149,0,4.494,1.559,8.617,4.151,11.884l-58.172,100.757h-75.485v13h75.485l58.172,100.757c-2.592,3.267-4.151,7.39-4.151,11.884,0,10.576,8.573,19.149,19.149,19.149,8.29,0,15.329-5.278,17.993-12.649l122.483.378Z"/>
        <path class="cls-2" d="M683.643,410.05l-49.075-85,49.075-85h83.701c2.664,7.371,9.703,12.649,17.993,12.649,1.218,0,2.405-.126,3.56-.343l41.971,72.695-49.075,85M842.126,331.549h95.711c2.664,7.371,9.703,12.649,17.993,12.649,10.576,0,19.149-8.573,19.149-19.149s-8.573-19.149-19.149-19.149c-8.29,0-15.329,5.278-17.993,12.649h-95.711l-42.031-72.8c2.742-3.313,4.391-7.564,4.391-12.201,0-10.576-8.573-19.149-19.149-19.149-8.29,0-15.329,5.278-17.993,12.649h-91.207l-56.58,98,53.833,93.242v133.657c-7.371,2.664-12.649,9.703-12.649,17.993,0,10.576,8.573,19.149,19.149,19.149s19.149-8.573,19.149-19.149c0-8.29-5.278-15.329-12.649-17.993v-128.898l102.768.243,52.968-91.743Z"/>
      </g>
    </g>
  </g>
  <g>
    <line class="cls-4" x1="458.456" y1="113.552" x2="411.686" y2="194.559"/>
    <line class="cls-4" x1="458.456" y1="284.553" x2="411.686" y2="203.545"/>
  </g>
</svg>