<?xml version="1.0" encoding="UTF-8" standalone="no" ?>
<!DOCTYPE svg PUBLIC "-//W3C//DTD SVG 1.1//EN" "http://www.w3.org/Graphics/SVG/1.1/DTD/svg11.dtd">
<svg xmlns="http://www.w3.org/2000/svg" xmlns:xlink="http://www.w3.org/1999/xlink" version="1.1" width="700" height="600" viewBox="0 0 700 600" xml:space="preserve">
<desc>Created with Fabric.js 3.6.6</desc>
<defs>
</defs>
<g transform="matrix(1 0 0 1 355.4 304.6)"  >
<g style=""   >
		<g transform="matrix(1 0 0 1 0 0)" id="42"  >
<rect style="stroke: none; stroke-width: 1; stroke-dasharray: none; stroke-linecap: butt; stroke-dashoffset: 0; stroke-linejoin: miter; stroke-miterlimit: 4; fill: rgb(255,255,255); fill-rule: nonzero; opacity: 1; visibility: hidden;" vector-effect="non-scaling-stroke"  x="-540" y="-540" rx="0" ry="0" width="1080" height="1080" />
</g>
		<g transform="matrix(1 0 0 1 -205.7 -170.86)"  >
<linearGradient id="SVGID_SVGID_linear-gradient_3_5" gradientUnits="userSpaceOnUse" gradientTransform="matrix(1 0 0 1 -434.3 -154.06)"  x1="408.319" y1="154.055" x2="460.285" y2="154.055">
<stop offset="0%" style="stop-color:rgb(102,16,124);stop-opacity: 1"/>
<stop offset="61.9%" style="stop-color:rgb(96,22,185);stop-opacity: 1"/>
<stop offset="100%" style="stop-color:rgb(93,26,225);stop-opacity: 1"/>
</linearGradient>
<line style="stroke: url(#SVGID_SVGID_linear-gradient_3_5); stroke-width: 6; stroke-dasharray: none; stroke-linecap: butt; stroke-dashoffset: 0; stroke-linejoin: miter; stroke-miterlimit: 10; fill: rgb(255,255,255); fill-rule: nonzero; opacity: 1;" vector-effect="non-scaling-stroke"  x1="23.38500000000002" y1="-40.503499999999995" x2="-23.38500000000002" y2="40.503499999999995" />
</g>
		<g transform="matrix(1 0 0 1 -205.7 -80.87)"  >
<linearGradient id="SVGID_SVGID_linear-gradient-2_4_6" gradientUnits="userSpaceOnUse" gradientTransform="matrix(1 0 0 -1 -434.3 -2615.26)"  x1="408.319" y1="-2615.257" x2="460.285" y2="-2615.257">
<stop offset="0%" style="stop-color:rgb(102,16,124);stop-opacity: 1"/>
<stop offset="61.9%" style="stop-color:rgb(96,22,185);stop-opacity: 1"/>
<stop offset="100%" style="stop-color:rgb(93,26,225);stop-opacity: 1"/>
</linearGradient>
<line style="stroke: url(#SVGID_SVGID_linear-gradient-2_4_6); stroke-width: 6; stroke-dasharray: none; stroke-linecap: butt; stroke-dashoffset: 0; stroke-linejoin: miter; stroke-miterlimit: 10; fill: rgb(255,255,255); fill-rule: nonzero; opacity: 1;" vector-effect="non-scaling-stroke"  x1="23.38500000000002" y1="40.50350000000002" x2="-23.38500000000002" y2="-40.50350000000002" />
</g>
		<g transform="matrix(1 0 0 1 -153.63 113.37)"  >
<path style="stroke: none; stroke-width: 0; stroke-dasharray: none; stroke-linecap: butt; stroke-dashoffset: 0; stroke-linejoin: miter; stroke-miterlimit: 4; fill: rgb(255,255,255); fill-rule: nonzero; opacity: 0.12;" vector-effect="non-scaling-stroke"  transform=" translate(-486.37, -438.3)" d="M 472.826 533.918 C 460.06100000000004 533.918 449.677 523.533 449.677 510.769 C 449.677 506.205 451.03700000000003 501.755 453.55 497.976 L 421.50300000000004 442.47 L 351.06500000000005 442.47 L 351.06500000000005 421.47 L 421.50300000000004 421.47 L 466.99700000000007 342.672 L 570.1100000000001 342.672 L 621.6670000000001 431.97 L 570.1100000000001 521.269 L 493.43600000000015 521.269 C 489.52400000000017 528.937 481.56600000000014 533.918 472.82600000000014 533.918 Z M 557.985 500.268 L 597.418 431.96899999999994 L 557.985 363.67099999999994 L 479.122 363.67099999999994 L 439.69 431.96899999999994 L 471.83299999999997 487.64399999999995 C 472.16799999999995 487.62699999999995 472.49899999999997 487.61999999999995 472.82599999999996 487.61999999999995 C 481.566 487.61999999999995 489.52399999999994 492.59999999999997 493.43499999999995 500.268 L 557.9849999999999 500.268 Z" stroke-linecap="round" />
</g>
		<g transform="matrix(1 0 0 1 -148.21 -125.88)"  >
<path style="stroke: none; stroke-width: 0; stroke-dasharray: none; stroke-linecap: butt; stroke-dashoffset: 0; stroke-linejoin: miter; stroke-miterlimit: 4; fill: rgb(255,255,255); fill-rule: nonzero; opacity: 0.12;" vector-effect="non-scaling-stroke"  transform=" translate(-491.79, -199.03)" d="M 453.677 341.32 C 440.913 341.32 430.529 330.935 430.529 318.17199999999997 C 430.529 313.84299999999996 431.702 309.71399999999994 433.943 306.08299999999997 L 378.198 209.52999999999997 L 301.022 209.52999999999997 L 301.022 188.52999999999997 L 378.198 188.52999999999997 L 433.943 91.97699999999998 C 431.702 88.34599999999998 430.529 84.21699999999997 430.529 79.88799999999998 C 430.529 67.12399999999998 440.914 56.73999999999998 453.677 56.73999999999998 C 462.41700000000003 56.73999999999998 470.375 61.719999999999985 474.286 69.38799999999998 L 596.681 69.38799999999998 L 658.1850000000001 175.91499999999996 C 658.594 175.89199999999997 659.0000000000001 175.87999999999997 659.4050000000001 175.87999999999997 C 672.1700000000001 175.87999999999997 682.5540000000001 186.26499999999996 682.5540000000001 199.02899999999997 C 682.5540000000001 211.79299999999998 672.1690000000001 222.17799999999997 659.4050000000001 222.17799999999997 C 659.0010000000001 222.17799999999997 658.594 222.16599999999997 658.1850000000001 222.14299999999997 L 596.4590000000001 329.05499999999995 L 474.28200000000004 328.67799999999994 C 470.37000000000006 336.34099999999995 462.41400000000004 341.31899999999996 453.677 341.31899999999996 Z M 584.556 307.672 L 640.0010000000001 211.64000000000004 C 637.57 207.90300000000005 636.2560000000001 203.51800000000003 636.2560000000001 199.03100000000003 C 636.2560000000001 194.54400000000004 637.57 190.15900000000005 640.0010000000001 186.42200000000003 L 584.556 90.39000000000003 L 474.28700000000003 90.39000000000003 C 470.37500000000006 98.05800000000004 462.41700000000003 103.03900000000003 453.677 103.03900000000003 C 453.069 103.03900000000003 452.458 103.01500000000003 451.848 102.96600000000004 L 396.385 199.03100000000003 L 451.848 295.096 C 452.458 295.047 453.069 295.023 453.677 295.023 C 462.41700000000003 295.023 470.375 300.004 474.28700000000003 307.672 L 584.556 307.672 Z" stroke-linecap="round" />
</g>
		<g transform="matrix(1 0 0 1 156.96 76.83)"  >
<path style="stroke: none; stroke-width: 0; stroke-dasharray: none; stroke-linecap: butt; stroke-dashoffset: 0; stroke-linejoin: miter; stroke-miterlimit: 4; fill: rgb(255,255,255); fill-rule: nonzero; opacity: 0.12;" vector-effect="non-scaling-stroke"  transform=" translate(-796.96, -401.75)" d="M 679.89 593.09 C 667.126 593.09 656.742 582.705 656.742 569.942 C 656.742 561.202 661.722 553.244 669.39 549.333 L 669.39 419.364 L 614.938 325.051 L 673.828 223.04999999999998 L 764.727 223.04999999999998 C 768.639 215.38199999999998 776.597 210.402 785.337 210.402 C 798.101 210.402 808.485 220.78699999999998 808.485 233.54999999999998 C 808.485 237.96999999999997 807.211 242.29699999999997 804.854 245.99499999999998 L 844.4350000000001 314.551 L 935.219 314.551 C 939.1310000000001 306.883 947.089 301.902 955.8290000000001 301.902 C 968.5930000000001 301.902 978.9770000000001 312.287 978.9770000000001 325.051 C 978.9770000000001 337.815 968.5920000000001 348.199 955.8290000000001 348.199 C 947.089 348.199 939.1310000000001 343.219 935.22 335.551 L 844.4350000000001 335.551 L 791.464 427.29999999999995 L 690.389 427.061 L 690.389 549.332 C 698.057 553.244 703.038 561.202 703.038 569.942 C 703.038 582.706 692.653 593.09 679.889 593.09 Z M 779.482 406.05 L 826.2479999999999 325.05 L 786.7589999999999 256.65200000000004 C 786.2799999999999 256.68300000000005 785.8069999999999 256.69900000000007 785.3369999999999 256.69900000000007 C 776.5969999999999 256.69900000000007 768.6389999999999 251.71800000000007 764.7269999999999 244.05000000000007 L 685.9529999999999 244.05000000000007 L 639.1869999999999 325.05100000000004 L 685.9529999999999 406.05100000000004 L 779.4829999999998 406.05100000000004 Z" stroke-linecap="round" />
</g>
		<g transform="matrix(1 0 0 1 157.27 76.83)"  >
<path style="stroke: none; stroke-width: 0; stroke-dasharray: none; stroke-linecap: butt; stroke-dashoffset: 0; stroke-linejoin: miter; stroke-miterlimit: 4; fill: rgb(255,255,255); fill-rule: nonzero; opacity: 1;" vector-effect="non-scaling-stroke"  transform=" translate(-797.27, -401.74)" d="M 683.643 410.05 L 634.568 325.05 L 683.643 240.05 L 767.344 240.05 C 770.008 247.42100000000002 777.047 252.699 785.3370000000001 252.699 C 786.5550000000001 252.699 787.7420000000001 252.573 788.897 252.35600000000002 L 830.868 325.05100000000004 L 781.793 410.05100000000004 M 842.126 331.549 L 937.837 331.549 C 940.501 338.91999999999996 947.54 344.198 955.83 344.198 C 966.4060000000001 344.198 974.979 335.625 974.979 325.049 C 974.979 314.47299999999996 966.4060000000001 305.9 955.83 305.9 C 947.5400000000001 305.9 940.5010000000001 311.178 937.837 318.549 L 842.126 318.549 L 800.095 245.74899999999997 C 802.837 242.43599999999998 804.486 238.18499999999997 804.486 233.54799999999997 C 804.486 222.97199999999998 795.913 214.39899999999997 785.337 214.39899999999997 C 777.047 214.39899999999997 770.008 219.67699999999996 767.3439999999999 227.04799999999997 L 676.137 227.04799999999997 L 619.5569999999999 325.048 L 673.3899999999999 418.29 L 673.3899999999999 551.947 C 666.0189999999999 554.611 660.7409999999999 561.65 660.7409999999999 569.94 C 660.7409999999999 580.5160000000001 669.3139999999999 589.089 679.8899999999999 589.089 C 690.4659999999999 589.089 699.0389999999999 580.5160000000001 699.0389999999999 569.94 C 699.0389999999999 561.6500000000001 693.7609999999999 554.6110000000001 686.3899999999999 551.947 L 686.3899999999999 423.049 L 789.1579999999999 423.292 L 842.1259999999999 331.549 Z" stroke-linecap="round" />
</g>
		<g transform="matrix(1 0 0 1 -148.21 -125.89)"  >
<path style="stroke: none; stroke-width: 0; stroke-dasharray: none; stroke-linecap: butt; stroke-dashoffset: 0; stroke-linejoin: miter; stroke-miterlimit: 4; fill: rgb(255,255,255); fill-rule: nonzero; opacity: 1;" vector-effect="non-scaling-stroke"  transform=" translate(-491.79, -199.03)" d="M 586.866 311.671 L 471.671 311.671 C 469.007 304.3 461.968 299.022 453.678 299.022 C 452.326 299.022 451.007 299.166 449.734 299.433 L 391.76599999999996 199.02999999999997 L 449.734 98.62699999999997 C 451.007 98.89399999999996 452.325 99.03799999999997 453.678 99.03799999999997 C 461.968 99.03799999999997 469.007 93.75999999999996 471.671 86.38899999999997 L 586.866 86.38899999999997 L 644.775 186.68899999999996 C 641.9599999999999 190.02299999999997 640.256 194.32499999999996 640.256 199.02999999999997 C 640.256 203.73499999999999 641.959 208.03699999999998 644.774 211.37099999999998 L 586.866 311.671 Z M 594.153 325.049 L 656.0360000000001 217.86399999999998 C 657.1320000000001 218.05899999999997 658.253 218.17799999999997 659.4050000000001 218.17799999999997 C 669.9810000000001 218.17799999999997 678.5540000000001 209.60499999999996 678.5540000000001 199.02899999999997 C 678.5540000000001 188.45299999999997 669.9810000000001 179.87999999999997 659.4050000000001 179.87999999999997 C 658.2540000000001 179.87999999999997 657.1320000000001 179.99899999999997 656.0360000000001 180.19399999999996 L 594.3720000000001 73.38699999999996 L 471.67100000000005 73.38699999999996 C 469.00700000000006 66.01599999999996 461.9680000000001 60.73799999999996 453.67800000000005 60.73799999999996 C 443.10200000000003 60.73799999999996 434.52900000000005 69.31099999999995 434.52900000000005 79.88699999999996 C 434.52900000000005 84.38099999999996 436.0880000000001 88.50399999999996 438.68000000000006 91.77099999999996 L 380.50800000000004 192.52799999999996 L 305.023 192.52799999999996 L 305.023 205.52799999999996 L 380.50800000000004 205.52799999999996 L 438.68000000000006 306.28499999999997 C 436.0880000000001 309.55199999999996 434.52900000000005 313.67499999999995 434.52900000000005 318.169 C 434.52900000000005 328.745 443.10200000000003 337.318 453.67800000000005 337.318 C 461.9680000000001 337.318 469.00700000000006 332.03999999999996 471.67100000000005 324.669 L 594.154 325.04699999999997 Z" stroke-linecap="round" />
</g>
		<g transform="matrix(1 0 0 1 -153.94 113.37)"  >
<path style="stroke: none; stroke-width: 0; stroke-dasharray: none; stroke-linecap: butt; stroke-dashoffset: 0; stroke-linejoin: miter; stroke-miterlimit: 4; fill: rgb(255,255,255); fill-rule: nonzero; opacity: 1;" vector-effect="non-scaling-stroke"  transform=" translate(-486.06, -438.3)" d="M 469.307 346.672 L 423.813 425.47 L 355.06399999999996 425.47 L 355.06399999999996 438.47 L 423.813 438.47 L 458.339 498.271 C 455.442 501.62600000000003 453.678 505.988 453.678 510.769 C 453.678 521.345 462.251 529.918 472.827 529.918 C 481.117 529.918 488.156 524.64 490.82 517.269 L 567.802 517.269 L 617.049 431.97 L 567.802 346.672 L 469.308 346.672 Z M 560.295 504.269 L 490.81899999999996 504.269 C 488.155 496.898 481.116 491.62 472.82599999999996 491.62 C 471.74899999999997 491.62 470.70099999999996 491.731 469.67199999999997 491.901 L 435.07099999999997 431.97 L 476.813 359.672 L 560.295 359.672 L 602.0369999999999 431.97 L 560.295 504.269 Z" stroke-linecap="round" />
</g>
		<g transform="matrix(1 0 0 1 39.89 245.03)"  >
<circle style="stroke: none; stroke-width: 0; stroke-dasharray: none; stroke-linecap: butt; stroke-dashoffset: 0; stroke-linejoin: miter; stroke-miterlimit: 4; fill: rgb(255,255,255); fill-rule: nonzero; opacity: 0.3;" vector-effect="non-scaling-stroke"  cx="0" cy="0" r="19.149" />
</g>
		<g transform="matrix(1 0 0 1 -167.17 185.85)"  >
<circle style="stroke: none; stroke-width: 0; stroke-dasharray: none; stroke-linecap: butt; stroke-dashoffset: 0; stroke-linejoin: miter; stroke-miterlimit: 4; fill: rgb(255,255,255); fill-rule: nonzero; opacity: 0.3;" vector-effect="non-scaling-stroke"  cx="0" cy="0" r="19.149" />
</g>
		<g transform="matrix(1 0 0 1 -186.32 -6.74)"  >
<circle style="stroke: none; stroke-width: 0; stroke-dasharray: none; stroke-linecap: butt; stroke-dashoffset: 0; stroke-linejoin: miter; stroke-miterlimit: 4; fill: rgb(255,255,255); fill-rule: nonzero; opacity: 0.3;" vector-effect="non-scaling-stroke"  cx="0" cy="0" r="19.149" />
</g>
		<g transform="matrix(1 0 0 1 19.41 -125.88)"  >
<circle style="stroke: none; stroke-width: 0; stroke-dasharray: none; stroke-linecap: butt; stroke-dashoffset: 0; stroke-linejoin: miter; stroke-miterlimit: 4; fill: rgb(255,255,255); fill-rule: nonzero; opacity: 0.3;" vector-effect="non-scaling-stroke"  cx="0" cy="0" r="19.149" />
</g>
		<g transform="matrix(1 0 0 1 -186.32 -245.03)"  >
<circle style="stroke: none; stroke-width: 0; stroke-dasharray: none; stroke-linecap: butt; stroke-dashoffset: 0; stroke-linejoin: miter; stroke-miterlimit: 4; fill: rgb(255,255,255); fill-rule: nonzero; opacity: 0.3;" vector-effect="non-scaling-stroke"  cx="0" cy="0" r="19.149" />
</g>
		<g transform="matrix(1 0 0 1 145.34 -91.37)"  >
<circle style="stroke: none; stroke-width: 0; stroke-dasharray: none; stroke-linecap: butt; stroke-dashoffset: 0; stroke-linejoin: miter; stroke-miterlimit: 4; fill: rgb(255,255,255); fill-rule: nonzero; opacity: 0.3;" vector-effect="non-scaling-stroke"  cx="0" cy="0" r="19.149" />
</g>
		<g transform="matrix(1 0 0 1 315.83 0.13)"  >
<circle style="stroke: none; stroke-width: 0; stroke-dasharray: none; stroke-linecap: butt; stroke-dashoffset: 0; stroke-linejoin: miter; stroke-miterlimit: 4; fill: rgb(255,255,255); fill-rule: nonzero; opacity: 0.3;" vector-effect="non-scaling-stroke"  cx="0" cy="0" r="19.149" />
</g>
		<g transform="matrix(1 0 0 1 -154.25 113.38)"  >
<path style="stroke: none; stroke-width: 0; stroke-dasharray: none; stroke-linecap: butt; stroke-dashoffset: 0; stroke-linejoin: miter; stroke-miterlimit: 4; fill: rgb(255,255,255); fill-rule: nonzero; opacity: 0.3;" vector-effect="non-scaling-stroke"  transform=" translate(-485.75, -438.3)" d="M 472.826 525.918 C 464.473 525.918 457.677 519.122 457.677 510.769 C 457.677 507.15 458.987 503.64 461.365 500.885 L 461.802 496.271 L 427.276 436.47 L 423.812 434.47 L 359.063 434.47 L 359.063 429.47 L 423.812 429.47 L 427.276 427.47 L 471.616 350.672 L 565.491 350.672 L 612.429 431.97 L 565.491 513.269 L 490.81899999999996 513.269 L 487.05699999999996 515.91 C 484.893 521.896 479.174 525.919 472.82599999999996 525.919 Z M 472.826 495.62 C 479.175 495.62 484.894 499.641 487.057 505.628 L 490.819 508.269 L 560.2950000000001 508.269 L 563.7590000000001 506.269 L 605.5010000000001 433.97 L 605.5010000000001 429.97 L 563.7590000000001 357.672 L 560.2950000000001 355.672 L 476.8130000000001 355.672 L 473.3490000000001 357.672 L 431.6070000000001 429.97 L 431.6070000000001 433.97 L 466.20900000000006 493.90200000000004 L 470.32900000000006 495.84800000000007 C 471.24800000000005 495.69500000000005 472.0660000000001 495.62000000000006 472.82700000000006 495.62000000000006 Z" stroke-linecap="round" />
</g>
		<g transform="matrix(1 0 0 1 -148.21 -125.88)"  >
<path style="stroke: none; stroke-width: 0; stroke-dasharray: none; stroke-linecap: butt; stroke-dashoffset: 0; stroke-linejoin: miter; stroke-miterlimit: 4; fill: rgb(255,255,255); fill-rule: nonzero; opacity: 0.3;" vector-effect="non-scaling-stroke"  transform=" translate(-491.79, -199.03)" d="M 453.677 333.32 C 445.324 333.32 438.528 326.524 438.528 318.17199999999997 C 438.528 314.73199999999997 439.66400000000004 311.48199999999997 441.812 308.77399999999994 L 442.14300000000003 304.28799999999995 L 383.971 203.53099999999995 L 380.507 201.53099999999995 L 309.022 201.53099999999995 L 309.022 196.53099999999995 L 380.507 196.53099999999995 L 383.971 194.53099999999995 L 442.14300000000003 93.77399999999994 L 441.812 89.28799999999994 C 439.664 86.57999999999994 438.528 83.32999999999994 438.528 79.88999999999994 C 438.528 71.53699999999995 445.324 64.74199999999995 453.677 64.74199999999995 C 460.02500000000003 64.74199999999995 465.744 68.76399999999995 467.908 74.74999999999994 L 471.67 77.39099999999995 L 592.061 77.39099999999995 L 652.571 182.19799999999995 L 656.734 184.13599999999994 C 657.693 183.96599999999995 658.567 183.88299999999995 659.404 183.88299999999995 C 667.757 183.88299999999995 674.553 190.67899999999995 674.553 199.03199999999995 C 674.553 207.38499999999996 667.757 214.18099999999995 659.404 214.18099999999995 C 658.567 214.18099999999995 657.694 214.09799999999996 656.734 213.92799999999997 L 652.571 215.86599999999996 L 591.847 321.044 L 471.681 320.673 L 467.907 323.314 C 465.743 329.3 460.025 333.322 453.676 333.322 Z M 453.677 303.022 C 460.02500000000003 303.022 465.744 307.044 467.908 313.031 L 471.67 315.672 L 586.865 315.672 L 590.3290000000001 313.672 L 648.2370000000001 213.37100000000004 L 647.8290000000001 208.79100000000003 C 645.5240000000001 206.06100000000004 644.254 202.59400000000002 644.254 199.03000000000003 C 644.254 195.46600000000004 645.524 192.00000000000003 647.8290000000001 189.26900000000003 L 648.2370000000001 184.68900000000002 L 590.3280000000001 84.38800000000002 L 586.864 82.38800000000002 L 471.66900000000004 82.38800000000002 L 467.90700000000004 85.02900000000002 C 465.74300000000005 91.01500000000003 460.02400000000006 95.03800000000003 453.67600000000004 95.03800000000003 C 452.636 95.03800000000003 451.58600000000007 94.92900000000003 450.552 94.71200000000003 L 446.26800000000003 96.62700000000004 L 388.3 197.03000000000003 L 388.3 201.03000000000003 L 446.26800000000003 301.43300000000005 L 450.552 303.34800000000007 C 451.586 303.1310000000001 452.636 303.02200000000005 453.67600000000004 303.02200000000005 Z" stroke-linecap="round" />
</g>
		<g transform="matrix(1 0 0 1 157.58 76.83)"  >
<path style="stroke: none; stroke-width: 0; stroke-dasharray: none; stroke-linecap: butt; stroke-dashoffset: 0; stroke-linejoin: miter; stroke-miterlimit: 4; fill: rgb(255,255,255); fill-rule: nonzero; opacity: 0.3;" vector-effect="non-scaling-stroke"  transform=" translate(-797.58, -401.75)" d="M 679.89 585.09 C 671.537 585.09 664.741 578.294 664.741 569.942 C 664.741 563.593 668.763 557.875 674.75 555.711 L 677.39 551.9490000000001 L 677.39 418.29200000000003 L 676.854 416.29200000000003 L 624.1750000000001 325.05100000000004 L 678.446 231.05000000000004 L 767.3430000000001 231.05000000000004 L 771.105 228.40900000000005 C 773.269 222.42400000000004 778.988 218.40100000000004 785.337 218.40100000000004 C 793.6899999999999 218.40100000000004 800.486 225.19700000000003 800.486 233.54900000000004 C 800.486 237.06700000000004 799.253 240.49400000000003 797.013 243.20000000000005 L 796.6310000000001 247.75000000000006 L 838.662 320.55000000000007 L 842.1260000000001 322.55000000000007 L 937.8370000000001 322.55000000000007 L 941.599 319.90900000000005 C 943.763 313.92300000000006 949.4820000000001 309.90000000000003 955.83 309.90000000000003 C 964.1840000000001 309.90000000000003 970.979 316.696 970.979 325.04900000000004 C 970.979 333.40200000000004 964.183 340.19700000000006 955.83 340.19700000000006 C 949.4820000000001 340.19700000000006 943.764 336.17600000000004 941.6 330.1890000000001 L 937.8380000000001 327.54800000000006 L 842.1260000000001 327.54800000000006 L 838.662 329.54800000000006 L 786.8520000000001 419.2850000000001 L 686.3990000000001 419.04800000000006 L 682.3900000000001 423.04800000000006 L 682.3900000000001 551.946 L 685.0310000000001 555.708 C 691.017 557.872 695.0390000000001 563.591 695.0390000000001 569.939 C 695.0390000000001 578.2919999999999 688.243 585.087 679.8900000000001 585.087 Z M 680.178 238.049 L 631.103 323.05 L 631.103 327.05 L 680.178 412.05 L 683.642 414.05 L 781.792 414.05 L 785.2560000000001 412.05 L 834.3310000000001 327.05 L 834.3310000000001 323.05 L 792.3600000000001 250.35500000000002 L 788.1550000000001 248.424 C 787.1890000000001 248.606 786.2410000000001 248.698 785.3360000000001 248.698 C 778.9870000000001 248.698 773.2690000000001 244.67600000000002 771.1050000000001 238.68900000000002 L 767.3430000000002 236.04800000000003 L 683.6420000000002 236.04800000000003 L 680.1780000000001 238.04800000000003 Z" stroke-linecap="round" />
</g>
</g>
</g>
</svg>